<svg enable-background="new 0 0 32 32" height="512" viewBox="0 0 32 32" width="512" xmlns="http://www.w3.org/2000/svg"><g id="Layer_2"><path d="m26 32h-20c-3.314 0-6-2.686-6-6v-20c0-3.314 2.686-6 6-6h20c3.314 0 6 2.686 6 6v20c0 3.314-2.686 6-6 6z" fill="#fff9dd"/></g><g id="bold"><g><g><path d="m12.167 21.333c-1.067 0-2.017-.683-2.362-1.701l-.023-.077c-.081-.27-.116-.496-.116-.723v-4.545l-1.616 5.4c-.208.794.266 1.618 1.061 1.837l10.309 2.761c.128.034.257.049.383.049.664 0 1.271-.44 1.44-1.09l.6-1.91h-9.676z" fill="#ffd200"/></g><path d="m14 14.333c.735 0 1.333-.598 1.333-1.333s-.598-1.333-1.333-1.333-1.333.598-1.333 1.333.598 1.333 1.333 1.333z" fill="#ffe777"/></g><path d="m22.333 9.667h-10c-.919 0-1.667.748-1.667 1.667v7.333c0 .919.748 1.667 1.667 1.667h10c.919 0 1.667-.748 1.667-1.667v-7.333c0-.92-.748-1.667-1.667-1.667zm-10 1.333h10c.184 0 .333.149.333.333v4.733l-2.106-2.457c-.223-.262-.547-.402-.894-.41-.345.002-.67.155-.891.421l-2.475 2.972-.806-.806c-.456-.456-1.198-.456-1.654 0l-1.84 1.84v-6.293c0-.184.149-.333.333-.333z" fill="#ffd200"/></g></svg>