<svg id="Capa_1" data-name="Capa 1" xmlns="http://www.w3.org/2000/svg" viewBox="0 0 894 318.91"><defs><style>.cls-1{fill:#fff;}.cls-2{fill:#a50000;}.cls-3{fill:#da0b1b;}</style></defs><title>casacredito-logo-crm</title><polygon class="cls-1" points="366.62 1.57 305.37 70.25 395.3 184.03 529.48 184.03 366.62 1.57"/><polygon class="cls-2" points="475.7 29.86 392.27 29.85 528.24 182.64 475.36 122.85 475.7 29.86"/><path class="cls-1" d="M289.2,326.28c-5.88,2.39-17.33,4.79-32,4.79-33,0-59.57-17.87-59.57-54.17,0-34.62,25.75-56.15,63.28-56.15,15.32,0,24.24,2.68,28.28,4.37L285.5,235a64.8,64.8,0,0,0-24.23-4.37c-29.13,0-49,16.32-49,45.87,0,28.15,18.18,44.75,48.15,44.75,9.77,0,19.36-1.83,25.75-4.36Z" transform="translate(-21 -16.87)"/><path class="cls-1" d="M350.62,315.79a67.77,67.77,0,0,0,1,13.73h-9.58l-1-7.38h-.4c-3.52,4.54-10.58,8.65-20.3,8.65-13.12,0-20.06-8-20.06-16.35,0-13.84,14.39-21.33,39.87-21.22,0-4.85,0-15.83-15.65-15.83a34.13,34.13,0,0,0-16.78,4.11l-2.52-6c5.55-3.05,13.25-4.84,20.94-4.84,19.44,0,24.48,11.5,24.48,22.89Zm-10.34-16.13c-13,0-29.28,1.58-29.28,13.71,0,7.39,5.55,10.66,11.86,10.66,10.22,0,17.42-6.54,17.42-13.51Z" transform="translate(-21 -16.87)"/><path class="cls-1" d="M403,280.77a27.91,27.91,0,0,0-13.37-3.38c-7.57,0-11.6,3.9-11.6,8.55,0,5,3.9,7.28,12.73,10.44,11.11,3.81,17.54,8.66,17.54,17.32,0,10.23-9.33,17-24.34,17a42,42,0,0,1-18-3.91l2.9-6.74a37.56,37.56,0,0,0,15.53,3.9c9.2,0,13.73-4.12,13.73-9.29,0-5.38-3.64-8.34-12.73-11.4-11.61-3.9-17.53-9.29-17.53-16.25,0-9,8.57-16.35,22.45-16.35A35.28,35.28,0,0,1,406,274.11Z" transform="translate(-21 -16.87)"/><path class="cls-1" d="M469.39,315.79a67.05,67.05,0,0,0,1,13.73h-9.59l-1-7.38h-.38c-3.53,4.54-10.6,8.65-20.31,8.65-13.13,0-20.07-8-20.07-16.35,0-13.84,14.39-21.33,39.88-21.22,0-4.85,0-15.83-15.64-15.83-5.93,0-12.12,1.37-16.78,4.11l-2.53-6c5.54-3.05,13.26-4.84,20.94-4.84,19.43,0,24.48,11.5,24.48,22.89ZM459,299.66c-13,0-29.28,1.58-29.28,13.71,0,7.39,5.56,10.66,11.87,10.66,10.22,0,17.41-6.54,17.41-13.51Z" transform="translate(-21 -16.87)"/><polygon class="cls-3" points="366.74 0 279.47 0 0 318.91 82.41 318.91 366.74 0"/><path class="cls-1" d="M577.37,323.29c-5.87,2.38-17.28,4.77-31.87,4.77-32.9,0-59.41-17.81-59.41-54,0-34.5,25.68-56,63.09-56,15.27,0,24.16,2.68,28.19,4.36l-3.69,9.82a64.68,64.68,0,0,0-24.16-4.35c-29,0-48.83,16.26-48.83,45.72,0,28.05,18.12,44.61,48,44.61,9.74,0,19.29-1.83,25.67-4.35Z" transform="translate(-21 -16.87)"/><path class="cls-1" d="M625,276.55a36.44,36.44,0,0,0-3.77-.21c-11.32,0-17.1,9.37-17.1,19v31.14H593.71V286.34c0-6.1-.14-11.69-.52-17.15h9.19l.5,11.05h.37a20.24,20.24,0,0,1,18.63-12.31,30.61,30.61,0,0,1,3.14.31Z" transform="translate(-21 -16.87)"/><path class="cls-1" d="M685.78,324.11c-3.91,1.56-11.07,3.56-21.51,3.56-20,0-31.94-11.77-31.94-28.92,0-18,12.06-30.93,30.55-30.93,21.14,0,26.54,16.2,26.54,26.2a47.6,47.6,0,0,1-.25,4.83H642.51c.13,15.89,11,21.89,23.27,21.89a50.72,50.72,0,0,0,18-2.95Zm-6.67-31.78c.12-7.78-3.76-17.88-17.24-17.88-12.56,0-18.1,10-19.11,17.88ZM667,244.47h12.2l-17,16.73h-7.55Z" transform="translate(-21 -16.87)"/><path class="cls-1" d="M760.38,312.32c0,4.63.25,10.31.5,14.2h-9.3l-.5-9.78h-.38c-3.53,6-11.33,11.05-22.4,11.05-15.85,0-28.17-11.48-28.17-29.15,0-19.36,13.59-30.71,29.56-30.71,10.06,0,16.86,4.1,20,8.83H750V242.37h10.43ZM750,292.12c0-11.46-9.7-17.14-18.49-17.14-13,0-20.63,10.09-20.63,23.24,0,12.09,6.78,22.41,20.25,22.41,11.32,0,18.87-8.31,18.87-17.46Z" transform="translate(-21 -16.87)"/><path class="cls-1" d="M786.18,259.09c-4,0-6.78-2.64-6.78-6s2.89-5.89,6.91-5.89,6.78,2.63,6.78,5.89c0,3.69-2.88,6-6.91,6m5.3,67.43H781V269.19h10.44Z" transform="translate(-21 -16.87)"/><path class="cls-1" d="M815,258.77l10.32-2.95v13.37H843V276H825.32v33.13c0,7.26,2.64,11.25,9.3,11.25a24.08,24.08,0,0,0,7-.84l.62,6.74a31.16,31.16,0,0,1-10.19,1.36c-16.6,0-17.1-12.61-17.1-18.72V276H804.43v-6.84H815Z" transform="translate(-21 -16.87)"/><path class="cls-1" d="M915,297.38c0,21.35-16.85,30.41-32.07,30.41-17.61,0-31.19-11.05-31.19-29.56,0-19.58,14.58-30.41,32.06-30.41,18.74,0,31.2,12,31.2,29.56m-31.58-22.73c-14.83,0-21,12.21-21,23.26,0,12.73,8.42,23,20.74,23s21.14-10.31,21.14-23.25c0-10.2-5.91-23.05-20.89-23.05" transform="translate(-21 -16.87)"/></svg>